<svg id="visual" viewBox="0 0 900 600" width="900" height="600" xmlns="http://www.w3.org/2000/svg" xmlns:xlink="http://www.w3.org/1999/xlink" version="1.1"><rect x="0" y="0" width="900" height="600" fill="#f3faff"></rect><defs><linearGradient id="grad1_0" x1="33.3%" y1="100%" x2="100%" y2="0%"><stop offset="20%" stop-color="#f3faff" stop-opacity="1"></stop><stop offset="80%" stop-color="#f3faff" stop-opacity="1"></stop></linearGradient></defs><defs><linearGradient id="grad2_0" x1="0%" y1="100%" x2="66.7%" y2="0%"><stop offset="20%" stop-color="#f3faff" stop-opacity="1"></stop><stop offset="80%" stop-color="#f3faff" stop-opacity="1"></stop></linearGradient></defs><g transform="translate(900, 600)"><path d="M-216.3 0C-213 -32.7 -209.7 -65.4 -185.7 -76.9C-161.7 -88.4 -117.1 -78.7 -100.4 -100.4C-83.7 -122.1 -94.9 -175.3 -82.8 -199.9C-70.7 -224.4 -35.4 -220.4 0 -216.3L0 0Z" fill="#F7770F"></path></g><g transform="translate(0, 0)"><path d="M216.3 0C183.9 14.6 151.5 29.3 146.9 60.8C142.3 92.4 165.7 140.9 153 153C140.3 165 91.6 140.6 60.1 145C28.6 149.5 14.3 182.9 0 216.3L0 0Z" fill="#F7770F"></path></g></svg>